<svg width="292" height="52" viewBox="0 0 292 52" fill="none" xmlns="http://www.w3.org/2000/svg">
<path d="M238.426 1.35254H251.582V19.5272H278.844V1.35254H292V49.773H278.844V28.7501H251.582V49.773H238.426V1.35254Z" fill="#2E303D"/>
<path d="M216.659 39.8041H194.415L190.482 49.773H176.309L197.603 1.35254H213.472L234.766 49.773H220.592L216.659 39.8041ZM205.537 11.7962L197.942 30.988H213.133L205.537 11.7962Z" fill="#2E303D"/>
<path d="M123.575 0.988281H158.772C162.117 0.988281 164.807 1.44039 166.842 2.3446C168.921 3.24881 170.504 4.37907 171.589 5.73538C172.719 7.04649 173.465 8.47062 173.827 10.0078C174.234 11.5449 174.437 12.9238 174.437 14.1445C174.437 17.1284 173.804 19.5698 172.538 21.4686C171.317 23.3675 169.328 24.8142 166.57 25.8088V25.9445C167.972 26.1705 169.102 26.7583 169.961 27.7077C170.865 28.6119 171.544 29.6969 171.996 30.9628C172.493 32.2287 172.809 33.585 172.945 35.0318C173.126 36.4333 173.216 37.7218 173.216 38.8973C173.216 39.485 173.239 40.2536 173.284 41.203C173.329 42.1524 173.42 43.1471 173.555 44.1869C173.736 45.1815 173.985 46.1536 174.301 47.103C174.663 48.0524 175.138 48.821 175.725 49.4087H161.349C161.032 48.8662 160.783 48.3237 160.603 47.7811C160.467 47.1934 160.354 46.5605 160.264 45.8823C160.173 45.1589 160.105 44.3451 160.06 43.4409C160.06 42.4915 160.06 41.3838 160.06 40.118C160.06 38.4452 159.879 37.0662 159.518 35.9812C159.201 34.8509 158.726 33.9693 158.093 33.3364C157.46 32.7034 156.714 32.2739 155.855 32.0479C154.996 31.7766 154.07 31.641 153.075 31.641H136.731V49.4087H123.575V0.988281ZM136.731 22.418H154.16C154.883 22.418 155.607 22.305 156.33 22.079C157.099 21.8529 157.777 21.5138 158.365 21.0617C158.998 20.5644 159.495 19.9315 159.857 19.1629C160.264 18.3491 160.467 17.3771 160.467 16.2468C160.467 15.0261 160.241 14.0315 159.789 13.2629C159.382 12.4943 158.839 11.884 158.161 11.4319C157.483 10.9798 156.737 10.6633 155.923 10.4825C155.11 10.3016 154.296 10.2112 153.482 10.2112H136.731V22.418Z" fill="#2E303D"/>
<path d="M71.3358 25.5665C71.3358 27.4654 71.607 29.3868 72.1495 31.3309C72.7373 33.2297 73.6641 34.9703 74.93 36.5527C76.1959 38.135 77.8461 39.4235 79.8805 40.4182C81.9602 41.4128 84.492 41.9101 87.4759 41.9101C90.4598 41.9101 92.969 41.4128 95.0034 40.4182C97.0831 39.4235 98.7559 38.135 100.022 36.5527C101.288 34.9703 102.192 33.2297 102.734 31.3309C103.322 29.3868 103.616 27.4654 103.616 25.5665C103.616 23.6677 103.322 21.7688 102.734 19.87C102.192 17.926 101.288 16.1627 100.022 14.5804C98.7559 12.998 97.0831 11.7095 95.0034 10.7149C92.969 9.72025 90.4598 9.22294 87.4759 9.22294C84.492 9.22294 81.9602 9.72025 79.8805 10.7149C77.8461 11.7095 76.1959 12.998 74.93 14.5804C73.6641 16.1627 72.7373 17.926 72.1495 19.87C71.607 21.7688 71.3358 23.6677 71.3358 25.5665ZM57.3657 25.5665C57.3657 23.8937 57.5014 22.1079 57.7726 20.2091C58.0439 18.265 58.5638 16.3436 59.3324 14.4447C60.1462 12.5459 61.2538 10.7375 62.6553 9.01949C64.0569 7.25628 65.8653 5.71912 68.0806 4.40802C70.3411 3.05171 73.0538 1.98926 76.2185 1.22068C79.3832 0.406894 83.1357 0 87.4759 0C91.8161 0 95.5686 0.406894 98.7333 1.22068C101.898 1.98926 104.588 3.05171 106.803 4.40802C109.064 5.71912 110.895 7.25628 112.296 9.01949C113.698 10.7375 114.783 12.5459 115.552 14.4447C116.365 16.3436 116.908 18.265 117.179 20.2091C117.45 22.1079 117.586 23.8937 117.586 25.5665C117.586 27.2393 117.45 29.0477 117.179 30.9918C116.908 32.8906 116.365 34.7895 115.552 36.6883C114.783 38.5871 113.698 40.4182 112.296 42.1814C110.895 43.8994 109.064 45.4365 106.803 46.7929C104.588 48.104 101.898 49.1438 98.7333 49.9124C95.5686 50.7262 91.8161 51.1331 87.4759 51.1331C83.1357 51.1331 79.3832 50.7262 76.2185 49.9124C73.0538 49.1438 70.3411 48.104 68.0806 46.7929C65.8653 45.4365 64.0569 43.8994 62.6553 42.1814C61.2538 40.4182 60.1462 38.5871 59.3324 36.6883C58.5638 34.7895 58.0439 32.8906 57.7726 30.9918C57.5014 29.0477 57.3657 27.2393 57.3657 25.5665Z" fill="#2E303D"/>
<path d="M0 1.35254H14.4447L28.4826 38.2443L42.5205 1.35254H56.9652L35.4676 49.773H21.4976L0 1.35254Z" fill="#2E303D"/>
</svg>
